<svg width="24" height="25" viewBox="0 0 24 25" fill="none" xmlns="http://www.w3.org/2000/svg">
<path fill-rule="evenodd" clip-rule="evenodd" d="M7.81204 3.46066H16.188C19.3978 3.46066 22 6.11839 22 9.39674V10.138L22.0002 10.1544L22 10.1709V15.4652L22.0002 15.4817L22 15.4982V16.5001C22 19.7784 19.3978 22.4362 16.188 22.4362H7.81204C4.60219 22.4362 2 19.7784 2 16.5001V9.39674C2 6.11839 4.60219 3.46066 7.81204 3.46066ZM20.5464 9.39674V9.41213H17.3504L17.1673 9.41728C15.4101 9.51529 14.0147 11.0001 14.0147 12.8181C14.0159 14.6992 15.5084 16.2229 17.3499 16.224H20.5464V16.5001C20.5464 18.9585 18.595 20.9516 16.188 20.9516H7.81204C5.40498 20.9516 3.45358 18.9585 3.45358 16.5001V9.39674C3.45358 6.93831 5.40498 4.94526 7.81204 4.94526H16.188C18.595 4.94526 20.5464 6.93831 20.5464 9.39674ZM17.3508 10.8967H20.5464V14.7394H17.3504L17.2033 14.7335C16.2329 14.6564 15.4689 13.8284 15.4683 12.8176C15.4683 11.7574 16.3109 10.8974 17.3508 10.8967ZM18.521 12.7581C18.521 12.3476 18.1956 12.0148 17.7942 12.0148H17.4921L17.3935 12.0216C17.0388 12.0708 16.7653 12.3818 16.7653 12.7581C16.7653 13.1685 17.0907 13.5013 17.4921 13.5013H17.7942L17.8928 13.4945C18.2475 13.4453 18.521 13.1343 18.521 12.7581ZM13.0807 8.69549C13.0807 8.285 12.7553 7.95223 12.3539 7.95223H7.12203L7.0234 7.95901C6.66866 8.00823 6.39524 8.3192 6.39524 8.69549C6.39524 9.10598 6.72063 9.43874 7.12203 9.43874H12.3539L12.4525 9.43196C12.8073 9.38274 13.0807 9.07177 13.0807 8.69549Z" fill="white"/>
</svg>
